<mxfile host="app.diagrams.net" agent="Mozilla/5.0 (Macintosh; Intel Mac OS X 10_15_7) AppleWebKit/537.36 (KHTML, like Gecko) Chrome/127.0.0.0 Safari/537.36" version="24.7.6">
  <diagram name="Page-1" id="4vwu3MOw8md2TdBGTPKI">
    <mxGraphModel dx="1434" dy="761" grid="1" gridSize="10" guides="1" tooltips="1" connect="1" arrows="1" fold="1" page="1" pageScale="1" pageWidth="827" pageHeight="1169" math="0" shadow="0">
      <root>
        <mxCell id="0" />
        <mxCell id="1" parent="0" />
        <mxCell id="8jv0xoFYXnseK65VqHHn-44" value="" style="rounded=0;whiteSpace=wrap;html=1;" vertex="1" parent="1">
          <mxGeometry x="200" y="80" width="720" height="580" as="geometry" />
        </mxCell>
        <mxCell id="8jv0xoFYXnseK65VqHHn-5" value="" style="rounded=0;whiteSpace=wrap;html=1;fillColor=#ffe6cc;strokeColor=#d79b00;" vertex="1" parent="1">
          <mxGeometry x="620" y="100" width="80" height="280" as="geometry" />
        </mxCell>
        <mxCell id="8jv0xoFYXnseK65VqHHn-1" value="Mongo" style="shape=cylinder3;whiteSpace=wrap;html=1;boundedLbl=1;backgroundOutline=1;size=15;" vertex="1" parent="1">
          <mxGeometry x="630" y="110" width="60" height="80" as="geometry" />
        </mxCell>
        <mxCell id="8jv0xoFYXnseK65VqHHn-2" value="Pgsql" style="shape=cylinder3;whiteSpace=wrap;html=1;boundedLbl=1;backgroundOutline=1;size=15;" vertex="1" parent="1">
          <mxGeometry x="630" y="200" width="60" height="80" as="geometry" />
        </mxCell>
        <mxCell id="8jv0xoFYXnseK65VqHHn-3" value="Elastic" style="shape=cylinder3;whiteSpace=wrap;html=1;boundedLbl=1;backgroundOutline=1;size=15;" vertex="1" parent="1">
          <mxGeometry x="630" y="290" width="60" height="80" as="geometry" />
        </mxCell>
        <mxCell id="8jv0xoFYXnseK65VqHHn-4" value="Mysql" style="shape=cylinder3;whiteSpace=wrap;html=1;boundedLbl=1;backgroundOutline=1;size=15;" vertex="1" parent="1">
          <mxGeometry x="630" y="390" width="60" height="80" as="geometry" />
        </mxCell>
        <mxCell id="8jv0xoFYXnseK65VqHHn-10" style="edgeStyle=orthogonalEdgeStyle;rounded=0;orthogonalLoop=1;jettySize=auto;html=1;entryX=1;entryY=0.5;entryDx=0;entryDy=0;" edge="1" parent="1" source="8jv0xoFYXnseK65VqHHn-6" target="8jv0xoFYXnseK65VqHHn-5">
          <mxGeometry relative="1" as="geometry" />
        </mxCell>
        <mxCell id="8jv0xoFYXnseK65VqHHn-6" value="Donors Feed" style="rounded=0;whiteSpace=wrap;html=1;fillColor=#dae8fc;strokeColor=#6c8ebf;" vertex="1" parent="1">
          <mxGeometry x="780" y="105" width="120" height="60" as="geometry" />
        </mxCell>
        <mxCell id="8jv0xoFYXnseK65VqHHn-11" style="edgeStyle=orthogonalEdgeStyle;rounded=0;orthogonalLoop=1;jettySize=auto;html=1;" edge="1" parent="1" source="8jv0xoFYXnseK65VqHHn-7" target="8jv0xoFYXnseK65VqHHn-5">
          <mxGeometry relative="1" as="geometry" />
        </mxCell>
        <mxCell id="8jv0xoFYXnseK65VqHHn-7" value="Images Feed" style="rounded=0;whiteSpace=wrap;html=1;fillColor=#dae8fc;strokeColor=#6c8ebf;" vertex="1" parent="1">
          <mxGeometry x="780" y="175" width="120" height="60" as="geometry" />
        </mxCell>
        <mxCell id="8jv0xoFYXnseK65VqHHn-12" style="edgeStyle=orthogonalEdgeStyle;rounded=0;orthogonalLoop=1;jettySize=auto;html=1;entryX=1;entryY=0.5;entryDx=0;entryDy=0;" edge="1" parent="1" source="8jv0xoFYXnseK65VqHHn-8" target="8jv0xoFYXnseK65VqHHn-5">
          <mxGeometry relative="1" as="geometry" />
        </mxCell>
        <mxCell id="8jv0xoFYXnseK65VqHHn-8" value="Specimens Feed" style="rounded=0;whiteSpace=wrap;html=1;fillColor=#dae8fc;strokeColor=#6c8ebf;" vertex="1" parent="1">
          <mxGeometry x="780" y="245" width="120" height="60" as="geometry" />
        </mxCell>
        <mxCell id="8jv0xoFYXnseK65VqHHn-13" style="edgeStyle=orthogonalEdgeStyle;rounded=0;orthogonalLoop=1;jettySize=auto;html=1;entryX=1;entryY=0.5;entryDx=0;entryDy=0;" edge="1" parent="1" source="8jv0xoFYXnseK65VqHHn-9" target="8jv0xoFYXnseK65VqHHn-5">
          <mxGeometry relative="1" as="geometry" />
        </mxCell>
        <mxCell id="8jv0xoFYXnseK65VqHHn-26" style="edgeStyle=orthogonalEdgeStyle;rounded=0;orthogonalLoop=1;jettySize=auto;html=1;entryX=1;entryY=0.5;entryDx=0;entryDy=0;" edge="1" parent="1" source="8jv0xoFYXnseK65VqHHn-9" target="8jv0xoFYXnseK65VqHHn-22">
          <mxGeometry relative="1" as="geometry">
            <Array as="points">
              <mxPoint x="840" y="540" />
            </Array>
          </mxGeometry>
        </mxCell>
        <mxCell id="8jv0xoFYXnseK65VqHHn-28" style="edgeStyle=orthogonalEdgeStyle;rounded=0;orthogonalLoop=1;jettySize=auto;html=1;entryX=1;entryY=0.5;entryDx=0;entryDy=0;" edge="1" parent="1" source="8jv0xoFYXnseK65VqHHn-9" target="8jv0xoFYXnseK65VqHHn-27">
          <mxGeometry relative="1" as="geometry">
            <Array as="points">
              <mxPoint x="840" y="610" />
            </Array>
          </mxGeometry>
        </mxCell>
        <mxCell id="8jv0xoFYXnseK65VqHHn-9" value="Genome Feed" style="rounded=0;whiteSpace=wrap;html=1;fillColor=#dae8fc;strokeColor=#6c8ebf;" vertex="1" parent="1">
          <mxGeometry x="780" y="315" width="120" height="60" as="geometry" />
        </mxCell>
        <mxCell id="8jv0xoFYXnseK65VqHHn-21" style="edgeStyle=orthogonalEdgeStyle;rounded=0;orthogonalLoop=1;jettySize=auto;html=1;entryX=1;entryY=0.5;entryDx=0;entryDy=0;" edge="1" parent="1" source="8jv0xoFYXnseK65VqHHn-14" target="8jv0xoFYXnseK65VqHHn-6">
          <mxGeometry relative="1" as="geometry" />
        </mxCell>
        <mxCell id="8jv0xoFYXnseK65VqHHn-14" value="Donors, clinical data, treatments" style="rounded=0;whiteSpace=wrap;html=1;" vertex="1" parent="1">
          <mxGeometry x="960" y="105" width="170" height="60" as="geometry" />
        </mxCell>
        <mxCell id="8jv0xoFYXnseK65VqHHn-20" style="edgeStyle=orthogonalEdgeStyle;rounded=0;orthogonalLoop=1;jettySize=auto;html=1;entryX=1;entryY=0.5;entryDx=0;entryDy=0;" edge="1" parent="1" source="8jv0xoFYXnseK65VqHHn-15" target="8jv0xoFYXnseK65VqHHn-7">
          <mxGeometry relative="1" as="geometry" />
        </mxCell>
        <mxCell id="8jv0xoFYXnseK65VqHHn-15" value="Images (MRI), radiomics features" style="rounded=0;whiteSpace=wrap;html=1;" vertex="1" parent="1">
          <mxGeometry x="960" y="175" width="170" height="60" as="geometry" />
        </mxCell>
        <mxCell id="8jv0xoFYXnseK65VqHHn-19" style="edgeStyle=orthogonalEdgeStyle;rounded=0;orthogonalLoop=1;jettySize=auto;html=1;entryX=1;entryY=0.5;entryDx=0;entryDy=0;" edge="1" parent="1" source="8jv0xoFYXnseK65VqHHn-16" target="8jv0xoFYXnseK65VqHHn-8">
          <mxGeometry relative="1" as="geometry" />
        </mxCell>
        <mxCell id="8jv0xoFYXnseK65VqHHn-16" value="Specimens (Material, Line, Organoid, Xenograft), molecular data, interventions, drug screenings" style="rounded=0;whiteSpace=wrap;html=1;" vertex="1" parent="1">
          <mxGeometry x="960" y="245" width="170" height="60" as="geometry" />
        </mxCell>
        <mxCell id="8jv0xoFYXnseK65VqHHn-18" style="edgeStyle=orthogonalEdgeStyle;rounded=0;orthogonalLoop=1;jettySize=auto;html=1;entryX=1;entryY=0.5;entryDx=0;entryDy=0;" edge="1" parent="1" source="8jv0xoFYXnseK65VqHHn-17" target="8jv0xoFYXnseK65VqHHn-9">
          <mxGeometry relative="1" as="geometry" />
        </mxCell>
        <mxCell id="8jv0xoFYXnseK65VqHHn-17" value="DNA, RNA, scRNA" style="rounded=0;whiteSpace=wrap;html=1;" vertex="1" parent="1">
          <mxGeometry x="960" y="315" width="170" height="60" as="geometry" />
        </mxCell>
        <mxCell id="8jv0xoFYXnseK65VqHHn-22" value="Ensembl Data" style="rounded=0;whiteSpace=wrap;html=1;fillColor=#e1d5e7;strokeColor=#9673a6;" vertex="1" parent="1">
          <mxGeometry x="600" y="510" width="120" height="60" as="geometry" />
        </mxCell>
        <mxCell id="8jv0xoFYXnseK65VqHHn-23" style="edgeStyle=orthogonalEdgeStyle;rounded=0;orthogonalLoop=1;jettySize=auto;html=1;entryX=0.5;entryY=1;entryDx=0;entryDy=0;entryPerimeter=0;" edge="1" parent="1" source="8jv0xoFYXnseK65VqHHn-22" target="8jv0xoFYXnseK65VqHHn-4">
          <mxGeometry relative="1" as="geometry" />
        </mxCell>
        <mxCell id="8jv0xoFYXnseK65VqHHn-27" value="Ensembl VEP" style="rounded=0;whiteSpace=wrap;html=1;fillColor=#e1d5e7;strokeColor=#9673a6;" vertex="1" parent="1">
          <mxGeometry x="600" y="580" width="120" height="60" as="geometry" />
        </mxCell>
        <mxCell id="8jv0xoFYXnseK65VqHHn-29" value="VEP&lt;div&gt;Cache&lt;/div&gt;" style="shape=note;whiteSpace=wrap;html=1;backgroundOutline=1;darkOpacity=0.05;size=13;" vertex="1" parent="1">
          <mxGeometry x="490" y="564" width="64" height="80" as="geometry" />
        </mxCell>
        <mxCell id="8jv0xoFYXnseK65VqHHn-32" style="edgeStyle=orthogonalEdgeStyle;rounded=0;orthogonalLoop=1;jettySize=auto;html=1;entryX=0;entryY=0;entryDx=64;entryDy=46.5;entryPerimeter=0;" edge="1" parent="1" source="8jv0xoFYXnseK65VqHHn-27" target="8jv0xoFYXnseK65VqHHn-29">
          <mxGeometry relative="1" as="geometry" />
        </mxCell>
        <mxCell id="8jv0xoFYXnseK65VqHHn-37" style="edgeStyle=orthogonalEdgeStyle;rounded=0;orthogonalLoop=1;jettySize=auto;html=1;entryX=0;entryY=0.5;entryDx=0;entryDy=0;" edge="1" parent="1" source="8jv0xoFYXnseK65VqHHn-33" target="8jv0xoFYXnseK65VqHHn-5">
          <mxGeometry relative="1" as="geometry" />
        </mxCell>
        <mxCell id="8jv0xoFYXnseK65VqHHn-33" value="Identity" style="rounded=0;whiteSpace=wrap;html=1;fillColor=#fff2cc;strokeColor=#d6b656;" vertex="1" parent="1">
          <mxGeometry x="420" y="210" width="120" height="60" as="geometry" />
        </mxCell>
        <mxCell id="8jv0xoFYXnseK65VqHHn-36" style="edgeStyle=orthogonalEdgeStyle;rounded=0;orthogonalLoop=1;jettySize=auto;html=1;entryX=0;entryY=0.5;entryDx=0;entryDy=0;" edge="1" parent="1" source="8jv0xoFYXnseK65VqHHn-34" target="8jv0xoFYXnseK65VqHHn-5">
          <mxGeometry relative="1" as="geometry" />
        </mxCell>
        <mxCell id="8jv0xoFYXnseK65VqHHn-34" value="Analysis" style="rounded=0;whiteSpace=wrap;html=1;fillColor=#fff2cc;strokeColor=#d6b656;" vertex="1" parent="1">
          <mxGeometry x="420" y="140" width="120" height="60" as="geometry" />
        </mxCell>
        <mxCell id="8jv0xoFYXnseK65VqHHn-38" style="edgeStyle=orthogonalEdgeStyle;rounded=0;orthogonalLoop=1;jettySize=auto;html=1;entryX=0;entryY=0.5;entryDx=0;entryDy=0;" edge="1" parent="1" source="8jv0xoFYXnseK65VqHHn-35" target="8jv0xoFYXnseK65VqHHn-5">
          <mxGeometry relative="1" as="geometry" />
        </mxCell>
        <mxCell id="8jv0xoFYXnseK65VqHHn-39" style="edgeStyle=orthogonalEdgeStyle;rounded=0;orthogonalLoop=1;jettySize=auto;html=1;entryX=0;entryY=0.5;entryDx=0;entryDy=0;" edge="1" parent="1" source="8jv0xoFYXnseK65VqHHn-35" target="8jv0xoFYXnseK65VqHHn-22">
          <mxGeometry relative="1" as="geometry">
            <Array as="points">
              <mxPoint x="480" y="540" />
            </Array>
          </mxGeometry>
        </mxCell>
        <mxCell id="8jv0xoFYXnseK65VqHHn-35" value="Composer" style="rounded=0;whiteSpace=wrap;html=1;fillColor=#fff2cc;strokeColor=#d6b656;" vertex="1" parent="1">
          <mxGeometry x="420" y="280" width="120" height="60" as="geometry" />
        </mxCell>
        <mxCell id="8jv0xoFYXnseK65VqHHn-41" style="edgeStyle=orthogonalEdgeStyle;rounded=0;orthogonalLoop=1;jettySize=auto;html=1;entryX=0;entryY=0.5;entryDx=0;entryDy=0;" edge="1" parent="1" source="8jv0xoFYXnseK65VqHHn-40" target="8jv0xoFYXnseK65VqHHn-34">
          <mxGeometry relative="1" as="geometry" />
        </mxCell>
        <mxCell id="8jv0xoFYXnseK65VqHHn-42" style="edgeStyle=orthogonalEdgeStyle;rounded=0;orthogonalLoop=1;jettySize=auto;html=1;entryX=0;entryY=0.5;entryDx=0;entryDy=0;" edge="1" parent="1" source="8jv0xoFYXnseK65VqHHn-40" target="8jv0xoFYXnseK65VqHHn-33">
          <mxGeometry relative="1" as="geometry" />
        </mxCell>
        <mxCell id="8jv0xoFYXnseK65VqHHn-43" style="edgeStyle=orthogonalEdgeStyle;rounded=0;orthogonalLoop=1;jettySize=auto;html=1;entryX=0;entryY=0.5;entryDx=0;entryDy=0;" edge="1" parent="1" source="8jv0xoFYXnseK65VqHHn-40" target="8jv0xoFYXnseK65VqHHn-35">
          <mxGeometry relative="1" as="geometry" />
        </mxCell>
        <mxCell id="8jv0xoFYXnseK65VqHHn-40" value="Portal" style="rounded=0;whiteSpace=wrap;html=1;fillColor=#d5e8d4;strokeColor=#82b366;" vertex="1" parent="1">
          <mxGeometry x="220" y="210" width="120" height="60" as="geometry" />
        </mxCell>
        <mxCell id="8jv0xoFYXnseK65VqHHn-46" style="edgeStyle=orthogonalEdgeStyle;rounded=0;orthogonalLoop=1;jettySize=auto;html=1;entryX=0;entryY=0.5;entryDx=0;entryDy=0;" edge="1" parent="1" source="8jv0xoFYXnseK65VqHHn-45" target="8jv0xoFYXnseK65VqHHn-40">
          <mxGeometry relative="1" as="geometry" />
        </mxCell>
        <mxCell id="8jv0xoFYXnseK65VqHHn-45" value="" style="sketch=0;pointerEvents=1;shadow=0;dashed=0;html=1;strokeColor=none;fillColor=#434445;aspect=fixed;labelPosition=center;verticalLabelPosition=bottom;verticalAlign=top;align=center;outlineConnect=0;shape=mxgraph.vvd.web_browser;" vertex="1" parent="1">
          <mxGeometry x="70" y="210" width="84.51" height="60" as="geometry" />
        </mxCell>
        <mxCell id="8jv0xoFYXnseK65VqHHn-47" value="" style="image;sketch=0;aspect=fixed;html=1;points=[];align=center;fontSize=12;image=img/lib/mscae/Docker.svg;" vertex="1" parent="1">
          <mxGeometry x="210" y="90" width="36.59" height="30" as="geometry" />
        </mxCell>
      </root>
    </mxGraphModel>
  </diagram>
</mxfile>
